#!OML:ASF F:\VICON\USERDATA\INSTALL\rory3\rory3.ASF
:FULLY-SPECIFIED
:DEGREES
947
root 5.08297 17.775 6.49943 187.184 36.9377 178.564
lowerback 2.1642 3.99938 0.855627
upperback 1.85332 5.37859 0.500682
thorax 0.720888 2.7104 -0.0424958
lowerneck -15.2012 5.48763 -4.20371
upperneck 40.6991 18.0185 -4.38784
head 17.968 7.51897 2.64392
rclavicle 3.97569e-014 -2.54444e-014
rhumerus -25.8716 -6.51536 -65.8033
rradius 48.2609
rwrist 11.7836
rhand -23.3745 4.90744
rfingers 7.12502
rthumb 3.08148 -25.05
lclavicle 3.97569e-014 -2.54444e-014
lhumerus -36.8699 11.5929 80.6004
lradius 41.2377
lwrist -4.54176
lhand -13.0286 24.9976
lfingers 7.12502
lthumb 13.0656 54.5683
rfemur -15.2952 -4.0446 17.3246
rtibia 31.4897
rfoot -28.0647 -17.2847
rtoes 5.6106
lfemur -23.1906 -6.82684 -16.1095
ltibia 27.3287
lfoot -10.0658 -3.49605
ltoes -11.4809
948
root 5.0863 17.7692 6.43996 186.984 36.6657 178.339
lowerback 2.12779 3.94022 0.683199
upperback 1.9485 5.29831 0.433807
thorax 0.828922 2.67005 -0.00728893
lowerneck -15.1913 5.5022 -4.50665
upperneck 40.517 17.9305 -4.18725
head 17.7871 7.4701 2.74083
rclavicle 4.8901e-014 1.35174e-014
rhumerus -25.6284 -6.32602 -65.9386
rradius 49.0953
rwrist 11.3275
rhand -23.4172 4.41613
rfingers 7.12502
rthumb 3.04022 -25.5419
lclavicle 4.8901e-014 1.35174e-014
lhumerus -36.7694 11.4802 80.801
lradius 40.9321
lwrist -4.17257
lhand -13.9123 24.7905
lfingers 7.12502
lthumb 12.2136 54.4139
rfemur -15.0704 -4.13801 17.0375
rtibia 31.6093
rfoot -28.4026 -17.5039
rtoes 5.11622
lfemur -22.9636 -7.27654 -16.4103
ltibia 27.3845
lfoot -10.2228 -3.40155
ltoes -9.18597
949
root 5.09147 17.7728 6.38032 186.88 36.4011 178.21
lowerback 2.15737 3.88884 0.531818
upperback 1.91774 5.22709 0.411375
thorax 0.769006 2.63235 0.0501906
lowerneck -14.9304 5.50013 -4.87253
upperneck 40.3136 17.8084 -3.93739
head 17.5182 7.43074 2.84181
rclavicle -4.23411e-014 6.36111e-015
rhumerus -25.6172 -6.08266 -66.0647
rradius 49.9484
rwrist 10.9825
rhand -23.3886 4.18737
rfingers 7.12502
rthumb 3.06781 -25.7703
lclavicle -4.23411e-014 6.36111e-015
lhumerus -36.8265 11.5189 80.8802
lradius 40.5485
lwrist -4.46663
lhand -14.3287 24.5309
lfingers 7.12502
lthumb 11.8122 54.1777
rfemur -14.8599 -4.17131 16.8455
rtibia 31.7187
rfoot -28.6853 -17.8302
rtoes 4.60151
lfemur -22.7875 -7.33507 -16.6995
ltibia 27.3484
lfoot -10.3399 -3.68775
ltoes -8.49862
950
root 5.0951 17.7716 6.32035 186.847 36.1193 178.056
lowerback 2.1436 3.84853 0.445453
upperback 1.85498 5.17 0.305068
thorax 0.714297 2.60227 -0.0114181
lowerneck -14.9679 5.51954 -4.63708
upperneck 40.4209 17.8981 -4.04304
head 17.6335 7.48433 2.79177
rclavicle 3.42904e-014 -1.43125e-014
rhumerus -25.696 -5.93541 -66.2623
rradius 50.7992
rwrist 10.6406
rhand -23.5122 4.43972
rfingers 7.12502
rthumb 2.94849 -25.5196
lclavicle 3.42904e-014 -1.43125e-014
lhumerus -36.7828 11.446 80.8661
lradius 40.0876
lwrist -4.83141
lhand -14.4254 23.9884
lfingers 7.12502
lthumb 11.7189 53.6406
rfemur -14.7232 -4.30609 16.6259
rtibia 31.8108
rfoot -29.0038 -17.8976
rtoes 4.94773
lfemur -22.7092 -7.38187 -16.9923
ltibia 27.2721
lfoot -10.3708 -4.0372
ltoes -8.83533
951
root 5.09722 17.7689 6.25836 186.825 35.9147 177.98
lowerback 2.09314 3.84579 0.438751
upperback 1.89208 5.16667 0.190564
thorax 0.790482 2.60152 -0.118363
lowerneck -15.1926 5.52101 -4.2676
upperneck 40.5485 17.966 -4.24103
head 17.84 7.51686 2.69379
rclavicle 4.27387e-015 3.33958e-014
rhumerus -25.683 -5.92426 -66.4806
rradius 51.6903
rwrist 10.4655
rhand -23.4441 4.47736
rfingers 7.12502
rthumb 3.01418 -25.4811
lclavicle 4.27387e-015 3.33958e-014
lhumerus -36.5342 11.2241 80.9441
lradius 39.6172
lwrist -5.13019
lhand -14.4152 23.7098
lfingers 7.12502
lthumb 11.7287 53.3614
rfemur -14.5548 -4.36959 16.4398
rtibia 31.9087
rfoot -29.3736 -17.8243
rtoes 5.39093
lfemur -22.5973 -7.52304 -17.1769
ltibia 27.2495
lfoot -10.4159 -4.2306
ltoes -8.78585
952
root 5.10032 17.7763 6.19875 186.783 35.7718 177.908
lowerback 2.07334 3.86071 0.338911
upperback 1.93685 5.18642 0.0981347
thorax 0.847309 2.61141 -0.153978
lowerneck -15.2874 5.50323 -4.12886
upperneck 40.5378 17.8742 -4.23432
head 17.8681 7.49055 2.66365
rclavicle 7.77248e-014 -1.59028e-015
rhumerus -25.6719 -5.86809 -66.7337
rradius 52.5548
rwrist 10.4514
rhand -23.5434 3.94726
rfingers 7.12502
rthumb 2.91832 -26.0125
lclavicle 7.77248e-014 -1.59028e-015
lhumerus -36.2689 11.0586 80.9779
lradius 39.237
lwrist -5.77474
lhand -14.0767 23.8962
lfingers 7.12502
lthumb 12.0551 53.5289
rfemur -14.4233 -4.30454 16.265
rtibia 32.094
rfoot -29.6034 -18.0578
rtoes 4.68043
lfemur -22.4416 -7.59224 -17.3495
ltibia 27.3226
lfoot -10.7666 -4.44801
ltoes -9.13204
953
root 5.10251 17.7809 6.14337 186.757 35.6162 177.815
lowerback 2.12313 3.88009 0.130454
upperback 1.87841 5.20791 0.0934571
thorax 0.741631 2.61913 -0.0510394
lowerneck -15.1283 5.46558 -4.22668
upperneck 40.5077 17.8309 -4.19544
head 17.7928 7.48376 2.67442
rclavicle -4.27387e-014 -1.43125e-014
rhumerus -25.8382 -5.62339 -66.8289
rradius 53.4706
rwrist 10.4467
rhand -23.7181 3.69027
rfingers 7.12502
rthumb 2.74965 -26.2718
lclavicle -4.27387e-014 -1.43125e-014
lhumerus -36.1656 10.9237 81.1215
lradius 38.8819
lwrist -6.2254
lhand -13.9876 23.8287
lfingers 7.12502
lthumb 12.141 53.4564
rfemur -14.39 -4.31903 16.0887
rtibia 32.3656
rfoot -29.7404 -18.276
rtoes 4.24411
lfemur -22.3055 -7.5355 -17.541
ltibia 27.433
lfoot -11.3901 -4.85494
ltoes -11.2471
